<?xml version="1.0" standalone="no"?>
<!DOCTYPE svg PUBLIC "-//W3C//DTD SVG 20010904//EN"
 "http://www.w3.org/TR/2001/REC-SVG-20010904/DTD/svg10.dtd">
<svg version="1.0" xmlns="http://www.w3.org/2000/svg"
 width="512.000000pt" height="512.000000pt" viewBox="0 0 512.000000 512.000000"
 preserveAspectRatio="xMidYMid meet">
<metadata>
Created by potrace 1.11, written by Peter Selinger 2001-2013
</metadata>
<g transform="translate(0.000000,512.000000) scale(0.100000,-0.100000)"
fill="#000000" stroke="none">
<path d="M219 5106 c-83 -29 -147 -86 -191 -169 l-23 -42 -3 -2320 c-2 -2605
-10 -2371 75 -2465 25 -28 69 -63 97 -78 l51 -27 2320 -3 c2647 -3 2376 -13
2481 92 105 105 95 -166 92 2481 l-3 2320 -23 43 c-34 63 -89 120 -146 150
l-51 27 -2320 2 c-1880 2 -2327 0 -2356 -11z m1624 -2599 c196 -508 357 -926
357 -930 0 -10 -318 -8 -364 2 -70 17 -90 47 -153 238 l-58 173 -359 -2 -359
-3 -57 -168 c-82 -245 -85 -246 -359 -247 -151 0 -163 1 -157 18 4 9 165 428
359 929 l352 913 221 0 220 0 357 -923z m941 912 c19 -9 61 -82 180 -313 207
-404 372 -735 412 -826 l33 -75 18 45 c24 64 556 1116 580 1148 l20 27 212 3
211 3 0 -930 0 -931 -185 0 -186 0 3 620 c2 340 0 616 -4 612 -3 -4 -113 -214
-243 -467 -131 -253 -248 -476 -260 -496 -33 -51 -77 -69 -170 -69 -78 0 -115
12 -147 47 -9 10 -130 236 -268 503 -138 266 -251 485 -253 486 -1 1 -1 -276
1 -617 l3 -619 -190 0 -191 0 0 930 0 930 200 0 c128 0 208 -4 224 -11z"/>
<path d="M1141 2676 c-68 -204 -126 -377 -129 -383 -3 -10 51 -13 252 -13 141
0 256 4 256 9 0 7 -250 754 -254 757 0 1 -57 -165 -125 -370z"/>
</g>
</svg>
