<svg version="1.0" xmlns="http://www.w3.org/2000/svg" width="512.000000pt" height="512.000000pt"
  viewBox="0 0 512.000000 512.000000" preserveAspectRatio="xMidYMid meet">
  <g transform="translate(0.000000,512.000000) scale(0.100000,-0.100000)" fill="#000000" stroke="none">
    <path d="M2277 4865 c-253 -31 -498 -104 -732 -219 -476 -234 -839 -597 -1071
-1071 -159 -325 -234 -650 -234 -1017 0 -362 75 -688 234 -1013 231 -474 597
-839 1071 -1070 326 -160 652 -235 1015 -235 363 0 690 76 1015 235 476 233
840 597 1070 1070 197 403 272 843 220 1287 -80 683 -461 1295 -1045 1678
-207 136 -520 267 -763 319 -229 50 -546 64 -780 36z m909 -1565 c195 -470
359 -864 364 -875 5 -11 144 -345 309 -742 l298 -723 -316 0 -316 0 -140 366
c-77 201 -142 367 -146 370 -6 3 -59 -140 -219 -588 l-53 -148 -407 0 -407 0
-133 348 c-73 191 -135 351 -138 356 -2 4 -69 -151 -147 -345 l-143 -354 -315
-3 -314 -2 307 742 c797 1924 1012 2443 1017 2451 2 4 126 6 274 5 l270 -3
355 -855z" />
    <path d="M2352 2949 l-202 -531 202 -519 c111 -286 205 -519 208 -519 4 0 364
937 397 1036 4 10 -383 1041 -396 1056 -4 4 -97 -231 -209 -523z" />
  </g>
</svg>