<svg xmlns="http://www.w3.org/2000/svg" style="isolation:isolate" viewBox="0 0 32 32">
  <linearGradient id="logo" x1="50%" y1="100%" x2="50%" y2="0%">
    <stop offset="0%" style="stop-color:#00171f" />
    <stop offset="100%" style="stop-color:#00a8e8" />
  </linearGradient>
  <path d="M2 0h28c1.104 0 2 .896 2 2v28c0 1.104-.896 2-2 2H2c-1.104 0-2-.896-2-2V2C0 .896.896 0 2 0z"
    fill="url(#logo)" />
  <path
    d="M9.296 10.536l4.512 11.656h-2.096q-.352 0-.58-.164-.228-.164-.316-.42l-.688-2.032H5.696l-.688 2.032q-.08.224-.312.404-.232.18-.568.18H2.016l4.512-11.656h2.768zM7.392 14.56L6.32 17.736h3.184l-1.072-3.192q-.104-.304-.244-.716t-.276-.892q-.128.488-.264.904-.136.416-.256.72zm13.32 2.303q.16.304.308.632.148.329.284.673.136-.352.288-.685.152-.332.312-.644l2.992-5.895q.08-.152.164-.236.084-.084.188-.124.104-.04.236-.04h2.372v11.648h-2.384v-6.704q0-.488.048-1.056l-3.088 5.992q-.144.28-.388.424-.244.144-.556.144h-.368q-.312 0-.556-.144-.244-.144-.388-.424l-3.104-6q.032.28.048.556t.016.508v6.704h-2.384V10.544h2.372q.132 0 .236.04.104.04.188.124.084.084.164.236l3 5.919z"
    fill-rule="evenodd" fill="#FFF" />
</svg>