<svg xmlns="http://www.w3.org/2000/svg" style="isolation:isolate" viewBox="0 0 512 512" width="512" height="512">
  <path
    d="M24 256C24 127.956 127.956 24 256 24c128.044 0 232 103.956 232 232 0 128.044-103.956 232-232 232-128.044 0-232-103.956-232-232z"
    fill-rule="evenodd" fill="#00171F" />
  <path
    d="M0 256C0 114.71 114.71 0 256 0c141.29 0 256 114.71 256 256 0 141.29-114.71 256-256 256C114.71 512 0 397.29 0 256zm24 0c0-61.5 24.5-120.6 68-164 43.4-43.5 102.5-68 164-68s120.6 24.5 164 68c43.5 43.4 68 102.5 68 164s-24.5 120.6-68 164c-43.4 43.5-102.5 68-164 68s-120.6-24.5-164-68c-43.5-43.4-68-102.5-68-164z"
    fill-rule="evenodd" fill="#00A8E8" />
  <path
    d="M323.669 341.495h.042L352.386 416H416l-60.723-146.824h-.195L283.229 96H228.53l-71.722 173.177-.085-.001L96 416h63.373l28.434-71.1 27.229 71.1h81.928l26.705-74.505zm-108.388-71.277l40.478-106.306 40.161 105.475L256 374.837l-40.719-104.619z"
    fill-rule="evenodd" fill="#00A8E8" />
</svg>