<svg xmlns="http://www.w3.org/2000/svg" style="isolation:isolate" viewBox="0 0 96 96">
	<defs>
		<clipPath id="aws">
			<path d="M0 0h96v96H0z" />
		</clipPath>
	</defs>
	<g clip-path="url(#aws)">
		<path
			d="M27.054 40.201c0 1.173.127 2.124.351 2.822.255.697.575 1.458 1.022 2.282.159.254.223.508.223.729 0 .318-.191.635-.606.952l-2.012 1.331c-.287.19-.575.285-.83.285-.319 0-.639-.158-.958-.443-.447-.476-.83-.983-1.149-1.49-.32-.539-.639-1.142-.99-1.871-2.491 2.917-5.62 4.375-9.387 4.375-2.682 0-4.821-.761-6.386-2.283-1.564-1.521-2.363-3.55-2.363-6.086 0-2.695.958-4.882 2.906-6.531 1.948-1.648 4.534-2.473 7.822-2.473 1.086 0 2.203.095 3.385.254 1.181.158 2.394.412 3.672.697v-2.314c0-2.409-.511-4.089-1.501-5.072-1.022-.983-2.746-1.458-5.204-1.458-1.118 0-2.267.126-3.449.412-1.181.285-2.33.634-3.448 1.078-.511.221-.894.348-1.117.412-.224.063-.384.095-.511.095-.447 0-.671-.317-.671-.983v-1.553c0-.508.064-.888.224-1.11.159-.222.447-.444.894-.666 1.117-.57 2.458-1.046 4.023-1.426 1.564-.412 3.224-.603 4.981-.603 3.799 0 6.577.856 8.365 2.568 1.756 1.712 2.65 4.312 2.65 7.799v10.271h.064zM14.091 45.02c1.053 0 2.139-.19 3.288-.571 1.15-.38 2.172-1.077 3.034-2.029.51-.602.894-1.268 1.085-2.028.192-.761.319-1.681.319-2.759v-1.331c-.925-.222-1.915-.412-2.937-.539-1.022-.127-2.011-.19-3.001-.19-2.139 0-3.704.412-4.758 1.268-1.053.856-1.564 2.061-1.564 3.646 0 1.49.383 2.599 1.181 3.36.767.793 1.884 1.173 3.353 1.173zm25.638 3.424c-.574 0-.957-.095-1.213-.317-.255-.19-.479-.634-.67-1.237l-7.504-24.505c-.191-.634-.287-1.046-.287-1.268 0-.507.255-.793.766-.793h3.129c.607 0 1.022.095 1.246.317.255.19.447.634.638 1.237l5.364 20.986 4.981-20.986c.16-.634.351-1.047.607-1.237.255-.19.702-.317 1.277-.317h2.554c.607 0 1.022.095 1.277.317.256.19.479.634.607 1.237l5.045 21.24 5.523-21.24c.192-.634.415-1.047.639-1.237.255-.19.67-.317 1.245-.317h2.969c.511 0 .799.254.799.793 0 .158-.032.317-.064.507s-.096.444-.224.793l-7.695 24.505c-.191.634-.415 1.046-.67 1.237-.256.19-.671.317-1.213.317h-2.746c-.607 0-1.022-.096-1.277-.317-.256-.222-.479-.635-.607-1.269l-4.949-20.447-4.917 20.416c-.16.634-.351 1.046-.607 1.268-.255.222-.702.317-1.277.317h-2.746zm41.029.856c-1.661 0-3.321-.19-4.917-.571-1.597-.38-2.842-.792-3.672-1.268-.511-.285-.862-.602-.99-.888-.128-.285-.192-.602-.192-.887v-1.617c0-.666.256-.983.735-.983.191 0 .383.032.575.095.191.064.478.191.798.317 1.085.476 2.267.856 3.512 1.11 1.277.254 2.522.38 3.799.38 2.012 0 3.576-.348 4.662-1.046 1.086-.697 1.66-1.712 1.66-3.012 0-.887-.287-1.616-.862-2.219-.575-.602-1.66-1.141-3.225-1.648l-4.629-1.427c-2.331-.729-4.055-1.807-5.109-3.233-1.053-1.395-1.596-2.949-1.596-4.597 0-1.332.287-2.505.862-3.519.575-1.014 1.341-1.902 2.299-2.6.958-.729 2.043-1.268 3.32-1.648 1.277-.38 2.618-.539 4.023-.539.703 0 1.437.032 2.139.127.735.095 1.405.222 2.076.349.638.158 1.245.317 1.82.507.574.19 1.021.38 1.341.57.447.254.766.508.958.793.191.254.287.602.287 1.046v1.49c0 .666-.255 1.015-.734 1.015-.256 0-.671-.127-1.214-.381-1.82-.824-3.863-1.236-6.13-1.236-1.82 0-3.257.285-4.246.887-.99.603-1.501 1.522-1.501 2.822 0 .888.319 1.648.958 2.251.638.602 1.82 1.204 3.512 1.743l4.534 1.427c2.299.729 3.959 1.744 4.949 3.043.989 1.3 1.468 2.79 1.468 4.439 0 1.363-.287 2.599-.83 3.677-.574 1.078-1.341 2.029-2.331 2.79-.989.792-2.171 1.363-3.544 1.775-1.436.444-2.937.666-4.565.666z"
			fill="#252F3E" />
		<path
			d="M86.792 64.707C76.288 72.41 61.026 76.5 47.903 76.5c-18.391 0-34.962-6.753-47.478-17.975-.989-.888-.095-2.092 1.086-1.395 13.538 7.799 30.236 12.522 47.51 12.522 11.654 0 24.457-2.409 36.239-7.354 1.756-.793 3.256 1.141 1.532 2.409z"
			fill-rule="evenodd" fill="#F90" />
		<path
			d="M91.166 59.761c-1.341-1.712-8.876-.824-12.292-.412-1.022.127-1.182-.761-.256-1.426 6.003-4.185 15.869-2.98 17.018-1.585 1.15 1.426-.319 11.222-5.938 15.914-.862.729-1.693.349-1.309-.602 1.277-3.139 4.118-10.208 2.777-11.889z"
			fill-rule="evenodd" fill="#F90" />
	</g>
</svg>