<svg xmlns="http://www.w3.org/2000/svg" xmlns:xlink="http://www.w3.org/1999/xlink" viewBox="0 0 2000 2008.2758">
  <defs>
    <linearGradient id="bs1">
      <stop offset="0" stop-color="#070135" />
      <stop offset="1" stop-color="#612d50" />
    </linearGradient>
    <linearGradient x1="314.62408" y1="547.20599" x2="427.37671" y2="432.48389" id="bs2" xlink:href="#bs1"
      gradientUnits="userSpaceOnUse" gradientTransform="translate(-52)" />
  </defs>
  <g transform="translate(-3987.6024 -6644.8835) scale(15.62304)">
    <rect width="128.01605" height="128.54576" ry="20.679518" x="255.23856" y="425.32587" fill="url(#bs2)" />
    <g style="text-align:center;line-height:100%;">
      <path
        d="M320.21331746 480.66517451c3.26930665.00004974 5.74826373-.7110715 7.4368813-2.13336373 1.68851703-1.42219274 2.53279566-3.5200014 2.53284592-6.29343593-.00005026-2.73776008-.84432889-4.8177912-2.53284593-6.24009338-1.68861756-1.45773786-4.16757464-2.18663664-7.4368813-2.18670627h-11.478655v16.85359931h11.478655m.70057505 34.8272131c4.16748418.00000994 7.2931174-.8711091 9.37692986-2.61337704 2.11963783-1.74222814 3.17948187-4.3733827 3.17954218-7.89345375-.00006031-3.44892112-1.0419414-6.02673313-3.12564329-7.73345595-2.08381245-1.7422182-5.22741868-2.61333724-9.43082875-2.61337703h-12.17923004v20.85366376h12.17923004m19.29276824-28.64045231c4.45488128 1.280062 7.90385761 3.64454362 10.34696922 7.09344484 2.44295077 3.4489808 3.66447139 7.6801532 3.66454175 12.69353706-.00007036 7.6801333-2.62274107 13.4046583-7.86800208 17.17359492-5.24539168 3.76894656-13.22117145 5.65342482-23.9273393 5.65342482h-34.4359851v-79.62791106h31.14866524c11.17322458.00007958 19.25678203 1.67121749 24.25069245 5.01341371 5.02969559 3.34234545 7.54457857 8.6935323 7.54465898 16.05358046-.00008041 3.87567145-.91621083 7.1823922-2.74841134 9.92015227-1.83234124 2.70231445-4.49093785 4.71123544-7.97578982 6.02676298"
        style="line-height:100%;" font-weight="700" font-size="109.79650116" letter-spacing="0" word-spacing="0"
        text-anchor="middle" fill="#fff" font-family="Sans" />
    </g>
  </g>
</svg>