<svg xmlns="http://www.w3.org/2000/svg" style="isolation:isolate" viewBox="0 0 96 96">
  <defs>
    <clipPath id="ex1">
      <path d="M0 0h96v96H0z" />
    </clipPath>
  </defs>
  <g clip-path="url(#ex1)">
    <mask id="ex2">
      <path
        d="M15.84 0h64.32C88.902 0 96 7.098 96 15.84v64.32C96 88.902 88.902 96 80.16 96H15.84C7.098 96 0 88.902 0 80.16V15.84C0 7.098 7.098 0 15.84 0z"
        fill="#fff" />
    </mask>
    <path
      d="M15.84 0h64.32C88.902 0 96 7.098 96 15.84v64.32C96 88.902 88.902 96 80.16 96H15.84C7.098 96 0 88.902 0 80.16V15.84C0 7.098 7.098 0 15.84 0z"
      fill="#EEE" mask="url(#ex2)" vector-effect="non-scaling-stroke" stroke-width="2" stroke="#DDD"
      stroke-linejoin="round" stroke-linecap="round" stroke-miterlimit="3" />
    <path
      d="M19.146 55.525v1.01h-8.584V40.83h8.584v1.009h-7.488v5.941h7.069v1.01h-7.069v6.735h7.488zm1.922 1.01l4.233-6.005-4.072-5.672h1.225l3.481 4.92 3.448-4.92h1.171l-4.007 5.672 4.297 6.005h-1.236l-3.673-5.21-3.696 5.21h-1.171zm17.317.215q-2.697 0-3.932-2.02h-.075l.032.902q.043.795.043 1.741v4.447H33.39V44.858h.902l.204 1.665h.065q1.203-1.891 3.845-1.891 2.364 0 3.604 1.553 1.241 1.552 1.241 4.517 0 2.879-1.305 4.463-1.305 1.585-3.561 1.585zm-.022-.946q1.794 0 2.777-1.332.983-1.332.983-3.727 0-5.146-3.717-5.146-2.041 0-2.997 1.123-.956 1.122-.956 3.657v.344q0 2.739.919 3.91.918 1.171 2.991 1.171zm12.719-11.172q.741 0 1.59.151l-.204 1.02q-.731-.182-1.515-.182-1.493 0-2.449 1.267-.956 1.268-.956 3.201v6.446h-1.064V44.858h.903l.107 2.105h.075q.72-1.289 1.536-1.81.817-.521 1.977-.521zm8.68 12.118q-2.546 0-3.97-1.569-1.423-1.568-1.423-4.393 0-2.793 1.375-4.475 1.375-1.681 3.706-1.681 2.063 0 3.255 1.44 1.192 1.439 1.192 3.91v.859h-8.411q.022 2.407 1.123 3.674 1.101 1.268 3.153 1.268.999 0 1.756-.14t1.918-.601v.966q-.989.43-1.827.586-.838.156-1.847.156zm-.312-11.172q-1.686 0-2.707 1.111-1.02 1.112-1.192 3.207h7.219q0-2.03-.881-3.174-.881-1.144-2.439-1.144zm14.91 7.917q0 1.568-1.192 2.411-1.192.844-3.384.844-2.342 0-3.717-.72v-1.15q1.762.881 3.717.881 1.73 0 2.627-.574.897-.575.897-1.531 0-.881-.715-1.483-.714-.601-2.347-1.181-1.751-.634-2.46-1.091-.709-.456-1.069-1.031t-.36-1.402q0-1.31 1.101-2.073 1.102-.763 3.078-.763 1.891 0 3.588.709l-.397.967q-1.719-.709-3.191-.709-1.429 0-2.266.473-.838.472-.838 1.31 0 .913.65 1.461.649.548 2.54 1.225 1.579.569 2.299 1.026.72.456 1.079 1.036.36.58.36 1.365zm10.248 0q0 1.568-1.192 2.411-1.192.844-3.384.844-2.342 0-3.717-.72v-1.15q1.762.881 3.717.881 1.73 0 2.627-.574.897-.575.897-1.531 0-.881-.715-1.483-.714-.601-2.347-1.181-1.751-.634-2.46-1.091-.709-.456-1.069-1.031t-.36-1.402q0-1.31 1.102-2.073 1.101-.763 3.077-.763 1.891 0 3.588.709l-.397.967q-1.719-.709-3.191-.709-1.429 0-2.266.473-.838.472-.838 1.31 0 .913.65 1.461.649.548 2.54 1.225 1.579.569 2.299 1.026.72.456 1.08 1.036.359.58.359 1.365z"
      fill-rule="evenodd" fill="#444" />
  </g>
</svg>