<svg xmlns="http://www.w3.org/2000/svg" style="isolation:isolate" viewBox="0 0 96 96">
  <defs>
    <clipPath id="gh">
      <path d="M0 0h96v96H0z" />
    </clipPath>
  </defs>
  <g clip-path="url(#gh)">
    <path
      d="M15.905 0h64.19C88.873 0 96 7.127 96 15.905v64.19C96 88.873 88.873 96 80.095 96h-64.19C7.127 96 0 88.873 0 80.095v-64.19C0 7.127 7.127 0 15.905 0z"
      fill="#222" stroke-miterlimit="10" />
    <path
      d="M54.96 51.983h-.988V40.394h3.326c2.716 0 3.646 1.668 3.646 3.476 0 1.809-.93 3.477-3.646 3.477H54.96v4.636zm0-5.609h2.469c2.048 0 2.44-1.391 2.44-2.504 0-1.112-.393-2.503-2.44-2.503H54.96v5.007zm9.604-1.313c-.973 0-1.612.185-2.179.386v-.928c.639-.293 1.482-.417 2.179-.417 2.179 0 2.745 1.051 2.745 2.596v5.284h-.566l-.218-.618c-.654.51-1.467.773-2.193.773-1.903 0-2.542-1.19-2.542-2.489 0-1.313.683-2.286 2.586-2.41l1.917-.124v-.432c-.001-1.127-.378-1.621-1.729-1.621zm-.262 3.013c-1.031.108-1.481.68-1.481 1.575 0 .696.16 1.53 1.539 1.53.785 0 1.307-.232 1.932-.618v-2.688l-1.99.201zm6.202 1.746c-.16.169-.276.386-.276.571 0 .386.174.557.552.602l2.469.309c1.365.155 1.99.727 1.99 2.071 0 1.885-1.772 2.627-3.776 2.627-2.034 0-3.253-.634-3.253-2.333 0-1.051.682-1.747 1.496-2.04v-.016c-.276-.2-.465-.509-.465-1.019 0-.433.247-.788.552-1.051-.871-.51-1.162-1.453-1.162-2.534 0-1.592.639-2.905 2.833-2.905.45 0 .828.061 1.162.154h2.469v.587l-1.22.372c.305.494.421 1.112.421 1.792 0 1.592-.64 2.905-2.832 2.905-.364.001-.684-.031-.96-.092zm.421 2.085c-.959.233-1.772.711-1.772 1.7 0 1.144.813 1.469 2.309 1.469 1.453 0 2.818-.387 2.818-1.7 0-.789-.349-1.098-1.235-1.206l-2.12-.263zm2.425-4.898c0-1.019-.188-1.962-1.888-1.962-1.699 0-1.888.943-1.888 1.962 0 1.02.189 1.962 1.888 1.962 1.699 0 1.888-.942 1.888-1.962zm5.457-2.905c2.469 0 2.759 1.793 2.759 4.018v.494h-4.793c.059 1.344.393 2.565 2.034 2.565 1.045 0 1.685-.108 2.396-.432v.927c-.813.386-1.684.463-2.396.463-2.455 0-3.05-1.792-3.05-4.017 0-2.225.595-4.018 3.05-4.018zm-2.034 3.631h3.776c0-1.375-.072-2.673-1.743-2.673-1.684.001-1.989 1.283-2.033 2.673zm8.671-.185c2.062.201 2.556.943 2.556 2.21 0 1.189-.712 2.379-2.919 2.379-.697 0-1.699-.186-2.164-.386v-.927c.45.169 1.147.355 2.179.355 1.51 0 1.917-.68 1.917-1.406 0-.711-.204-1.205-1.641-1.329-2.106-.201-2.542-.989-2.542-2.055 0-1.097.668-2.286 2.716-2.286.682 0 1.452.092 2.091.386v.927c-.566-.2-1.132-.355-2.106-.355-1.438 0-1.743.572-1.743 1.329 0 .679.261 1.034 1.656 1.158zm-69.289-2.334h-3.558c-.092 0-.166.079-.166.177v1.851c0 .097.074.176.166.176h1.388v2.3s-.312.113-1.173.113c-1.016 0-2.436-.396-2.436-3.717 0-3.323 1.478-3.76 2.866-3.76 1.202 0 1.72.225 2.049.333.104.034.199-.076.199-.174l.398-1.787c0-.046-.015-.101-.064-.139-.134-.101-.951-.587-3.012-.587C10.436 40 8 41.075 8 46.243c0 5.171 2.789 5.941 5.14 5.941 1.947 0 3.127-.885 3.127-.885.049-.028.054-.101.054-.133v-5.775c0-.098-.074-.177-.166-.177zm18.481-4.595c0-.098-.073-.178-.165-.178h-2.003c-.092 0-.166.08-.166.178 0 .001.001 4.119.001 4.119H29.18v-4.119c0-.098-.074-.178-.166-.178h-2.003c-.091 0-.165.08-.165.178v11.156c0 .098.074.178.165.178h2.003c.092 0 .166-.08.166-.178v-4.773h3.123s-.006 4.772-.006 4.773c0 .098.074.178.166.178h2.008c.091 0 .165-.08.165-.178V40.619zm-14.628 1.464c0-.768-.578-1.388-1.292-1.388-.713 0-1.292.62-1.292 1.388 0 .767.579 1.389 1.292 1.389.714 0 1.292-.622 1.292-1.389zm-.143 7.337v-5.149c0-.098-.074-.177-.166-.177h-1.997c-.091 0-.173.1-.173.198v7.378c0 .217.127.281.291.281h1.8c.197 0 .246-.103.246-.285-.001-.395-.001-1.946-.001-2.246zm22.546-5.31h-1.988c-.091 0-.166.08-.166.179v5.468s-.505.393-1.222.393-.907-.346-.907-1.093v-4.768c0-.098-.074-.178-.165-.178h-2.018c-.091 0-.165.08-.165.178v5.13c0 2.22 1.161 2.763 2.76 2.763 1.311 0 2.368-.771 2.368-.771s.051.406.073.454c.023.049.082.096.147.096l1.284-.006c.091 0 .165-.079.165-.177l-.001-7.489c0-.098-.074-.179-.165-.179zm5.542-.25c-1.129 0-1.897.536-1.897.536v-3.777c0-.098-.074-.178-.165-.178h-2.009c-.091 0-.165.08-.165.178v11.156c0 .098.074.178.165.178h1.394c.063 0 .11-.035.145-.095.035-.06.085-.514.085-.514s.822.828 2.377.828c1.825 0 2.872-.986 2.872-4.425 0-3.438-1.672-3.887-2.802-3.887zm-.784 6.284c-.689-.023-1.157-.356-1.157-.356v-3.531s.461-.301 1.027-.355c.717-.068 1.406.162 1.406 1.979 0 1.916-.311 2.294-1.276 2.263zm-21.583-6.051h-1.502s-.003-2.112-.003-2.113c0-.08-.038-.12-.125-.12h-2.048c-.08 0-.123.037-.123.119v2.182s-1.026.263-1.095.285c-.069.021-.12.089-.12.17v1.371c0 .098.074.178.165.178h1.05v3.3c0 2.452 1.615 2.693 2.706 2.693.498 0 1.094-.17 1.192-.209.06-.022.094-.088.094-.16l.002-1.51c0-.098-.078-.178-.166-.178-.087 0-.312.038-.542.038-.738 0-.988-.365-.988-.838v-3.136h1.503c.091 0 .165-.08.165-.178V44.27c.001-.098-.074-.177-.165-.177z"
      fill="#FFF" />
  </g>
</svg>