<svg viewBox="0 0 24 24" xmlns="http://www.w3.org/2000/svg">
  <path d="M20 2h-.5L0 21.5v.5c0 1.1030273.8969727 2 2 2h.6594238L22 4.4044189V4c0-1.1030273-.8969727-2-2-2z"
    fill="#FDDC49" />
  <path d="M2 2C.8969727 2 0 2.8969727 0 4v17.5L19.5 2H2z" fill="#56A959" />
  <path fill="#5796FF" d="M2.6594238 24H19.5l-8.4754028-8.4754028z" />
  <path fill="#CCC" d="M13.5081787 13.0081787L22 21.5V4.4044189z" />
  <path d="M11.0245972 15.5245972L19.5 24h.5c1.1030273 0 2-.8969727 2-2v-.5l-8.4918213-8.4918213-2.4835815 2.5164185z"
    fill="#F2F2F2" />
  <path
    d="M20 2H2C.8969727 2 0 2.8969727 0 4v.25c0-1.1030273.8969727-2 2-2h18c1.1030273 0 2 .8969727 2 2V4c0-1.1030273-.8969727-2-2-2z"
    fill="#FFF" opacity=".2" />
  <path
    d="M20 23.75H2c-1.1030273 0-2-.8969727-2-2V22c0 1.1030273.8969727 2 2 2h18c1.1030273 0 2-.8969727 2-2v-.25c0 1.1030273-.8969727 2-2 2z"
    opacity=".1" />
  <path
    d="M18 0c-3.3085938 0-6 2.6914062-6 6 0 .2338867.0161133.4633789.0415039.6816406.2084961 2.1323242 1.3486328 3.8886719 2.5561523 5.7475586 1.1870117 1.8276367 2.4140625 3.7172852 2.9125977 6.1704102C17.5571289 18.8325195 17.762207 19 18 19s.4428711-.1674805.4897461-.4003906c.4985352-2.453125 1.7255859-4.3427734 2.9125977-6.1704102C22.6098633 10.5703125 23.75 8.8139648 23.9575195 6.6899414 23.9838867 6.4633789 24 6.2338867 24 6c0-3.3085938-2.6914062-6-6-6z"
    fill="#E53935" />
  <path
    d="M18 .25c2.6693726 0 4.9413242 1.7137717 5.7706089 4.1043358C23.0560703 1.8394431 20.7409058 0 18 0s-5.0542164 1.8329653-5.768755 4.347858C13.0605297 1.9572939 15.3306274.25 18 .25z"
    fill="#FFF" opacity=".2" />
  <path
    d="M23.9575195 6.4399414c-.2075195 2.1240234-1.3476562 3.8803711-2.5551757 5.7392578-1.1870117 1.8276367-2.4140625 3.7172852-2.9125977 6.1704102C18.4428711 18.5825195 18.237793 18.75 18 18.75s-.4428711-.1674805-.4897461-.4003906c-.4985352-2.453125-1.7255859-4.3427734-2.9125977-6.1704102C13.3901367 10.3203125 12.25 8.5639648 12.0415039 6.4316406c-.0211792-.1819458-.0302734-.3745728-.0346069-.5681763C12.0058594 5.9093018 12 5.9539185 12 6c0 .2338867.0161133.4633789.0415039.6816406.2084961 2.1323242 1.3486328 3.8886719 2.5561523 5.7475586 1.1870117 1.8276367 2.4140625 3.7172852 2.9125977 6.1704102C17.5571289 18.8325195 17.762207 19 18 19s.4428711-.1674805.4897461-.4003906c.4985352-2.453125 1.7255859-4.3427734 2.9125977-6.1704102C22.6098633 10.5703125 23.75 8.8139648 23.9575195 6.6899414 23.9838867 6.4633789 24 6.2338867 24 6c0-.0463257-.0059204-.0911255-.006958-.137207-.0042725.194458-.0134888.3876342-.0355225.5771484z"
    opacity=".1" />
  <circle cx="18" cy="6" fill="#B71C1C" r="2" />
  <circle cx="18" cy="6" opacity=".1" r="2" />
  <path
    d="M5.5 10.5c-1.6542969 0-3-1.3457031-3-3s1.3457031-3 3-3c.6557617 0 1.2788086.2080078 1.8022461.6010742l-.6005859.7998047C6.3525391 5.6386719 5.9370117 5.5 5.5 5.5c-1.1030273 0-2 .8969727-2 2s.8969727 2 2 2c.9301758 0 1.7143555-.6381836 1.9365234-1.5H6V7h2.5v.5c0 1.6542969-1.3457031 3-3 3z"
    fill="#F2F2F2" />
  <linearGradient gradientUnits="userSpaceOnUse" id="gm" x1="-1.3687702" x2="23.9358921" y1="6.4920235" y2="18.2917805">
    <stop offset="0" stop-color="#fff" stop-opacity=".2" />
    <stop offset="1" stop-color="#fff" stop-opacity="0" />
  </linearGradient>
  <path
    d="M24 6c0-3.3085938-2.6914062-6-6-6-1.7710571 0-3.3603516.7757568-4.4595337 2H2C.8969727 2 0 2.8969727 0 4v18c0 1.1030273.8969727 2 2 2h18c1.1030273 0 2-.8969727 2-2V11.4970093c.9649658-1.5283203 1.7849121-3.0406494 1.9575195-4.8070679C23.9838867 6.4633789 24 6.2338867 24 6z"
    fill="url(#gm)" />
</svg>