<svg viewBox="0 0 144 152" xmlns="http://www.w3.org/2000/svg">
  <path d="M117.9092 12.242H26.0948c-6.337744 0-11.4768 5.139056-11.4768 11.4768v104.5664c0 6.337744 5.139056 11.4768 11.4768 11.4768h91.8144c6.337744 0 11.4768-5.139056 11.4768-11.4768V23.7188c0-6.337744-5.139056-11.4768-11.4768-11.4768zM43.31 120.634V95.13l14.346 12.752zm44.632 0V82.55334c-.062166-2.975998-1.495172-6.55134-7.97-6.55134-12.965596 0-27.509252 6.521054-27.654306 6.586408L43.31 86.669048V31.37h12.752v36.201334C62.428436 65.499134 71.327738 63.25 79.972 63.25c7.88233 0 12.60057 3.098736 15.170098 5.69855 5.484954 5.54712 5.559872 12.613322 5.551902 13.42945v38.256zm3.188-68.542H78.378c5.011536-6.57525 8.158092-13.494804 9.564-20.722h12.752c-.86076 7.243136-3.796908 14.1866-9.564 20.722z" fill="#6963b9"/>
</svg>