<svg xmlns="http://www.w3.org/2000/svg" style="isolation:isolate" viewBox="0 0 24 24">
  <defs>
    <clipPath id="nx1">
      <path d="M0 0h24v24H0z" />
    </clipPath>
  </defs>
  <g clip-path="url(#nx1)">
    <path
      d="M4.32 0h15.36C22.064 0 24 1.936 24 4.32v15.36c0 2.384-1.936 4.32-4.32 4.32H4.32C1.936 24 0 22.064 0 19.68V4.32C0 1.936 1.936 0 4.32 0z" />
    <clipPath id="nx2">
      <path
        d="M4.32 0h15.36C22.064 0 24 1.936 24 4.32v15.36c0 2.384-1.936 4.32-4.32 4.32H4.32C1.936 24 0 22.064 0 19.68V4.32C0 1.936 1.936 0 4.32 0z"
        stroke="#000" fill="#fff" stroke-miterlimit="10" />
    </clipPath>
    <g clip-path="url(#nx2)">
      <path
        d="M7.8 9.879h3v.192H8.067v1.672H10.6V12H8.067v1.8H10.8v.257h-3V9.879zm3.267 0h.333l1.4 1.8 1.467-1.8L16.2 7.5 13 11.871l1.667 2.186h-.334L12.8 12.064l-1.533 1.993h-.334l1.734-2.186-1.6-1.992zm3.733.192v-.192h3.4v.192h-1.533v3.986h-.334v-3.986H14.8zM4 9.879h.333l4.8 6.621-2-2.443-2.866-3.921v3.921H4V9.879zm14.2 3.857c.067 0 .067 0 .067-.065 0-.064 0-.128-.067-.128s-.133.064-.133.128c0 .065.066.065.133.065zm.267-.193c0 .128.133.257.266.257.2 0 .334-.129.334-.321v-.643h-.134v.643c0 .128-.066.128-.2.128-.066 0-.133 0-.133-.064h-.133zm.8-.064c0 .192.133.321.333.321.267 0 .4-.129.4-.321 0-.129-.067-.193-.267-.258H19.6c-.133-.064-.133-.064-.133-.128s.066-.129.133-.129c.133 0 .2 0 .267.129H20c0-.193-.2-.257-.333-.257-.267 0-.4.064-.4.257 0 .128.066.193.266.257h.134c.133.064.2.064.2.129 0 .128-.134.192-.2.192-.134 0-.267-.064-.267-.192h-.133z"
        fill="#FFF" />
    </g>
  </g>
</svg>