<svg viewBox="0 0 24 24" xmlns="http://www.w3.org/2000/svg">
  <path d="M19.376 15.988l-7.7084 4.4505-7.7084-4.4505V7.0871l7.7084-4.4505 7.7084 4.4505z" fill="#fff"
    fill-opacity=".78498" />
  <path
    d="M12.286 1.9792c-.21 0-.41031.059687-.57031.17969l-7.9004 4.4395c-.32.17-.5293.50086-.5293.88086v9c0 .38.2093.71086.5293.88086l7.9004 4.4395c.16.12.36031.17969.57031.17969s.41031-.05969.57031-.17969l7.9004-4.4395c.32-.17.5293-.50086.5293-.88086v-9c0-.38-.2093-.71086-.5293-.88086l-7.9004-4.4395c-.16-.12-.36031-.17969-.57031-.17969zm0 2.1504l7 3.9395v2.1035h-.01563v5.1777h.01563v.53906l-7 3.9395-7-3.9395v-7.8203l7-3.9395zm0 2.0801L7.3856 9.0398l4.9004 2.8301 4.9004-2.8301-4.9004-2.8301zm-5 5.0801v3.5801l4 2.3086v-3.5801l-4-2.3086zm10 0l-4 2.3086v3.5801l4-2.3086v-3.5801z"
    fill="#8ed6fb" />
  <path
    d="M12.286 6.2097L7.3856 9.0398l4.9004 2.8301 4.9004-2.8301-4.9004-2.8301zm-5 5.0801v3.5801l4 2.3086v-3.5801l-4-2.3086zm10 0l-4 2.3086v3.5801l4-2.3086v-3.5801z"
    fill="#1c78c0" />
</svg>